<svg xmlns="http://www.w3.org/2000/svg" width="512" height="512" viewBox="0 0 512 512">
  <rect width="512" height="512" rx="72" fill="#fff4d8"/>
  <path d="M145 180 159 74l82 75M367 180 353 74l-82 75" fill="#f4a340" stroke="#3c3035" stroke-width="12" stroke-linejoin="round"/>
  <circle cx="256" cy="265" r="151" fill="#f4a340" stroke="#3c3035" stroke-width="12"/>
  <path d="M179 230q32-24 61 0M276 230q32-24 61 0" fill="none" stroke="#3c3035" stroke-width="12" stroke-linecap="round"/>
  <path d="M232 281q24 13 48 0" fill="none" stroke="#3c3035" stroke-width="10" stroke-linecap="round"/>
  <path d="M119 300h91M302 300h91M123 329l88-10M301 319l88 10" stroke="#3c3035" stroke-width="8" stroke-linecap="round"/>
  <path d="M169 367q87 78 174 0M176 393q80-60 160 0" fill="none" stroke="#3c3035" stroke-width="18" stroke-linecap="round"/>
  <text x="256" y="462" text-anchor="middle" font-family="DejaVu Sans, sans-serif" font-weight="700" font-size="54" fill="#3c3035">HMPF!</text>
</svg>

